<?xml version="1.0" standalone="no"?>
<!DOCTYPE svg PUBLIC "-//W3C//DTD SVG 20010904//EN"
 "http://www.w3.org/TR/2001/REC-SVG-20010904/DTD/svg10.dtd">
<svg version="1.0" xmlns="http://www.w3.org/2000/svg"
 width="368.000000pt" height="137.000000pt" viewBox="0 0 368.000000 137.000000"
 preserveAspectRatio="xMidYMid meet">

<g transform="translate(0.000000,137.000000) scale(0.100000,-0.100000)"
fill="#000000" stroke="none">
<path d="M1750 1270 c-180 -25 -373 -85 -545 -170 -91 -46 -106 -50 -170 -50
-289 0 -541 -91 -717 -258 -21 -20 -38 -39 -38 -42 0 -4 30 -44 66 -90 41 -52
63 -74 60 -59 -3 13 -10 44 -16 69 l-10 45 63 60 c191 184 473 226 1121 169
124 -11 238 -14 361 -11 186 5 219 10 565 78 144 29 242 43 330 46 146 7 161
2 310 -92 108 -68 148 -85 202 -85 l42 0 -109 81 c-203 151 -301 183 -487 160
l-88 -10 -97 38 c-224 89 -377 120 -608 126 -93 2 -199 0 -235 -5z m350 -35
c35 -9 86 -28 114 -42 73 -36 179 -114 169 -123 -9 -9 -342 -54 -349 -47 -2 2
13 16 35 30 21 14 49 41 62 59 l24 33 -36 -28 c-19 -14 -76 -46 -125 -69 -86
-42 -92 -43 -204 -46 -100 -3 -547 32 -559 43 -5 6 161 81 264 120 242 91 438
113 605 70z"/>
<path d="M2375 915 c-67 -59 -197 -142 -273 -175 -140 -60 -325 -89 -576 -91
-126 -1 -128 -2 -66 -11 36 -6 160 -11 275 -12 222 -1 302 9 440 56 118 40
256 130 309 201 26 36 13 61 -35 64 -27 2 -43 -5 -74 -32z"/>
<path d="M2654 833 c-25 -61 -21 -154 10 -218 15 -30 39 -64 53 -75 14 -11 24
-22 22 -24 -2 -1 -53 3 -114 10 -241 28 -544 37 -1032 30 l-482 -6 -52 -32
c-65 -41 -163 -50 -236 -23 -102 39 -173 140 -173 247 0 31 4 68 10 82 13 35
2 33 -12 -1 -35 -90 -28 -178 22 -257 16 -25 29 -46 27 -47 -1 0 -78 -13 -172
-28 l-170 -28 200 -8 c202 -8 358 -4 630 15 94 7 455 10 970 8 l820 -3 43 23
c51 27 55 37 7 16 -85 -35 -213 -9 -283 59 -67 64 -98 173 -74 260 6 20 9 37
6 37 -2 0 -11 -17 -20 -37z"/>
<path d="M3288 835 c30 -34 32 -40 33 -118 l1 -82 21 45 c14 29 21 66 22 104
0 65 6 59 -79 80 l-29 7 31 -36z"/>
</g>
</svg>
