<?xml version="1.0" standalone="no"?>
<!DOCTYPE svg PUBLIC "-//W3C//DTD SVG 20010904//EN"
 "http://www.w3.org/TR/2001/REC-SVG-20010904/DTD/svg10.dtd">
<svg version="1.0" xmlns="http://www.w3.org/2000/svg"
 width="1200.000000pt" height="603.000000pt" viewBox="0 0 1200.000000 603.000000"
 preserveAspectRatio="xMidYMid meet">
<metadata>
Created by potrace 1.16, written by Peter Selinger 2001-2019
</metadata>
<g transform="translate(0.000000,603.000000) scale(0.100000,-0.100000)"
fill="#000000" stroke="none">
<path d="M0 3015 l0 -3015 6000 0 6000 0 0 3015 0 3015 -6000 0 -6000 0 0
-3015z m4516 2119 c19 -9 49 -34 66 -57 l32 -40 90 6 c50 4 179 13 286 22 691
53 1429 46 2287 -21 l82 -7 48 50 c65 66 97 74 137 34 26 -26 31 -39 31 -81 0
-55 2 -54 -60 -39 -42 11 -44 13 -38 37 6 26 6 26 -17 11 -31 -20 -36 -36 -13
-42 40 -10 -39 -6 -237 12 -427 40 -579 46 -1235 46 -652 -1 -885 -10 -1269
-50 -133 -14 -211 -18 -173 -8 23 6 22 19 -5 37 -31 22 -39 20 -28 -8 8 -22 6
-25 -35 -35 -56 -14 -62 -14 -62 2 0 7 -3 24 -6 38 -5 20 1 35 29 67 40 47 43
48 90 26z m-248 -134 c-7 -11 -19 -20 -26 -20 -8 0 -12 -6 -9 -14 3 -8 -5 -18
-19 -25 -31 -14 -37 -14 -28 1 13 20 -18 -3 -75 -56 -191 -181 -333 -381 -497
-701 -65 -127 -205 -443 -237 -537 -4 -10 -12 -18 -18 -18 -8 0 -8 4 -2 13 6
6 32 68 58 137 215 559 565 1093 781 1191 34 16 65 33 69 39 3 5 8 10 11 10 2
0 -1 -9 -8 -20z m3656 -138 c210 -209 461 -628 626 -1048 34 -88 67 -164 72
-171 5 -7 5 -12 -2 -15 -8 -2 -8 -11 -1 -31 9 -24 8 -27 -15 -33 -14 -4 -34
-2 -46 3 -19 8 -19 10 11 42 l31 33 -29 71 c-16 40 -43 110 -62 157 -98 256
-269 565 -433 785 -68 91 -273 298 -287 289 -13 -8 -50 6 -44 16 3 5 -4 14
-15 20 -11 6 -20 15 -20 19 0 5 31 -6 68 -25 47 -24 93 -59 146 -112z m918
-1538 c101 -109 158 -182 158 -203 0 -9 19 -39 41 -66 56 -68 111 -149 143
-214 22 -42 28 -72 33 -145 l5 -91 -42 74 c-22 41 -42 79 -43 85 -1 6 -25 43
-54 83 -57 79 -118 191 -115 211 2 7 -7 12 -20 12 -23 0 -135 118 -255 269
-72 89 -67 108 6 24 96 -112 201 -202 201 -174 0 6 -28 48 -63 93 -86 113
-127 174 -127 189 0 7 13 -6 29 -27 15 -21 62 -76 103 -120z m-5589 115 c-10
-16 -46 -69 -81 -116 -35 -47 -61 -87 -59 -90 10 -9 68 29 114 75 55 55 49 45
-37 -63 -80 -101 -151 -175 -167 -175 -7 0 -13 -6 -13 -13 0 -23 -73 -151
-126 -220 -29 -37 -68 -93 -86 -125 -30 -51 -33 -54 -36 -31 -4 36 23 151 47
197 11 21 50 76 86 123 37 46 77 107 90 134 14 28 63 93 111 145 48 52 105
116 127 143 46 54 56 60 30 16z m109 -479 c36 1 69 -3 72 -8 3 -5 26 -13 51
-16 25 -4 45 -10 45 -14 0 -4 23 -5 52 -3 57 4 198 -17 198 -30 0 -4 33 -5 74
-2 54 4 92 1 140 -12 59 -16 66 -20 60 -39 -10 -34 -40 -53 -96 -60 -114 -14
-149 -16 -143 -6 4 6 11 7 17 4 7 -4 8 -2 4 4 -4 7 -13 12 -20 12 -7 0 -19 11
-26 25 -15 29 -25 31 -38 9 -8 -15 -74 -28 -142 -28 -60 0 -313 34 -360 49
-25 7 -63 17 -85 20 -53 10 -81 28 -89 61 -9 32 15 61 53 66 14 2 58 -5 96
-15 39 -10 100 -18 137 -17z m5516 24 c13 -9 22 -25 22 -42 0 -64 -2 -65 -148
-100 -188 -44 -396 -75 -452 -67 -25 4 -54 8 -65 10 -11 1 -19 8 -17 14 3 16
-25 14 -31 -3 -8 -21 2 -26 57 -27 44 0 48 -2 26 -10 -29 -12 -151 -10 -195 2
-16 5 -51 11 -78 14 -43 6 -49 10 -66 45 l-18 38 66 18 c38 10 94 17 131 16
36 -1 90 5 120 14 99 28 149 35 183 26 25 -7 45 -5 81 8 65 25 115 32 153 21
17 -5 34 -6 38 -3 10 10 116 40 145 41 14 1 36 -6 48 -15z m-5612 -329 c4 -8
14 -15 24 -15 10 0 31 -7 46 -15 16 -8 36 -15 45 -15 29 0 37 -23 33 -95 -6
-104 -6 -105 -34 -111 -14 -3 -45 -12 -70 -21 -25 -8 -57 -17 -73 -20 -15 -3
-30 -9 -33 -14 -8 -13 -67 -11 -100 4 -16 7 -48 25 -71 40 -51 33 -53 33 -54
5 0 -22 -1 -22 -9 -3 -12 28 -12 113 0 120 6 4 10 -6 11 -22 1 -26 1 -26 10 7
28 106 30 110 51 110 12 0 30 8 41 18 10 9 49 22 85 28 92 16 92 16 98 -1z
m5541 -6 c27 -6 60 -18 75 -25 14 -8 36 -14 47 -14 18 0 21 -6 21 -40 0 -27 4
-40 14 -40 17 0 15 -44 -4 -87 -13 -29 -62 -62 -83 -55 -4 1 -24 -5 -43 -13
-53 -22 -142 -19 -205 7 -49 20 -91 48 -73 48 4 0 5 3 2 6 -4 3 -15 1 -27 -5
-18 -10 -21 -8 -27 24 -9 52 2 88 26 80 16 -5 20 -2 20 19 0 37 60 79 134 92
34 6 64 12 68 13 4 0 29 -4 55 -10z"/>
</g>
</svg>
